<?xml version="1.0" standalone="no"?>
<!DOCTYPE svg PUBLIC "-//W3C//DTD SVG 20010904//EN"
 "http://www.w3.org/TR/2001/REC-SVG-20010904/DTD/svg10.dtd">
<svg version="1.0" xmlns="http://www.w3.org/2000/svg"
 width="577.000000pt" height="244.000000pt" viewBox="0 0 577.000000 244.000000"
 preserveAspectRatio="xMidYMid meet">

<g transform="translate(0.000000,244.000000) scale(0.100000,-0.100000)"
fill="#000000" stroke="none">
<path d="M3037 1295 c-74 -19 -116 -69 -131 -157 -7 -40 8 -53 19 -17 9 26 61
86 89 101 65 35 150 27 185 -19 27 -33 26 -46 -1 -58 -36 -16 -33 -41 9 -69
21 -14 41 -26 45 -26 5 0 8 27 8 60 0 140 -95 219 -223 185z"/>
<path d="M74 1208 c18 -40 53 -112 77 -160 l43 -88 41 0 41 0 77 160 76 160
-42 0 -42 -1 -54 -115 -55 -116 -58 116 -58 116 -40 0 -39 0 33 -72z"/>
<path d="M490 1120 l0 -160 160 0 160 0 0 35 0 35 -125 0 -125 0 0 25 0 24
123 3 122 3 0 35 0 35 -122 3 -123 3 0 24 0 25 125 0 125 0 0 35 0 35 -160 0
-160 0 0 -160z"/>
<path d="M860 1120 l0 -160 145 0 145 0 0 35 0 35 -105 0 -105 0 0 125 0 125
-40 0 -40 0 0 -160z"/>
<path d="M1227 1262 c-14 -15 -17 -41 -17 -144 0 -163 -5 -158 162 -158 163 0
158 -5 158 162 0 163 5 158 -162 158 -108 0 -127 -2 -141 -18z m123 -107 c-30
-30 -58 -55 -62 -55 -10 0 -11 94 -1 103 3 4 31 7 62 7 l55 0 -54 -55z m106
-111 c-4 -10 -23 -14 -63 -14 l-57 0 59 60 60 61 3 -47 c2 -25 1 -53 -2 -60z"/>
<path d="M1606 1264 c-23 -23 -23 -265 0 -288 12 -13 41 -16 149 -16 127 0
135 1 149 22 9 12 16 35 16 50 0 26 -3 28 -40 28 -29 0 -40 -4 -40 -15 0 -12
-17 -15 -90 -15 l-90 0 0 90 0 90 90 0 c73 0 90 -3 90 -15 0 -11 11 -15 40
-15 37 0 40 2 40 28 0 15 -7 38 -16 50 -14 21 -22 22 -149 22 -108 0 -137 -3
-149 -16z"/>
<path d="M1970 1120 l0 -160 40 0 40 0 0 160 0 160 -40 0 -40 0 0 -160z"/>
<path d="M2100 1245 l0 -34 63 -3 62 -3 3 -122 3 -123 34 0 35 0 0 125 0 125
60 0 60 0 0 35 0 35 -160 0 -160 0 0 -35z"/>
<path d="M2490 1275 c0 -3 27 -44 60 -92 59 -85 60 -87 60 -155 l0 -68 35 0
35 0 0 68 c0 68 1 70 60 155 33 48 60 89 60 92 0 3 -19 5 -42 5 -40 0 -45 -4
-77 -50 -18 -27 -37 -48 -41 -45 -5 3 -21 25 -37 50 -26 42 -31 45 -70 45 -24
0 -43 -2 -43 -5z"/>
<path d="M3363 1120 l-2 -160 40 0 40 0 -3 95 c-2 52 0 95 4 95 4 0 32 -33 64
-72 31 -40 60 -73 65 -73 4 0 34 34 66 75 l58 75 3 -98 3 -97 39 0 40 0 0 160
0 160 -40 0 c-38 0 -43 -4 -101 -77 -33 -43 -64 -79 -68 -81 -4 -1 -35 34 -70
78 -58 75 -64 80 -99 80 l-37 0 -2 -160z"/>
<path d="M3854 1266 c-17 -13 -19 -27 -19 -146 0 -166 -6 -160 158 -160 65 0
127 5 138 10 17 10 19 23 19 150 0 127 -2 140 -19 150 -31 16 -253 13 -277 -4z
m166 -64 c0 -4 -25 -32 -55 -62 l-55 -54 0 62 0 62 55 0 c30 0 55 -4 55 -8z
m60 -112 l0 -60 -55 0 c-30 0 -55 3 -55 7 0 7 101 113 107 113 2 0 3 -27 3
-60z"/>
<path d="M4210 1245 l0 -35 60 0 60 0 0 -125 0 -125 40 0 40 0 0 125 0 125 60
0 60 0 0 35 0 35 -160 0 -160 0 0 -35z"/>
<path d="M4607 1262 c-14 -15 -17 -41 -17 -144 0 -163 -5 -158 163 -158 160 0
157 -3 157 160 0 163 3 160 -159 160 -111 0 -130 -2 -144 -18z m118 -112 l-60
-61 -3 47 c-5 69 -1 74 65 74 l57 0 -59 -60z m111 -106 c-4 -10 -23 -14 -63
-14 l-57 0 59 60 60 61 3 -47 c2 -25 1 -53 -2 -60z"/>
<path d="M4970 1120 l0 -160 35 0 35 0 0 60 0 60 43 0 c41 0 43 -2 75 -60 32
-58 34 -60 73 -60 l41 0 -32 57 c-21 40 -27 59 -18 62 6 2 23 15 36 28 22 22
24 31 20 85 -6 85 -12 88 -175 88 l-133 0 0 -160z m230 65 c0 -25 -1 -25 -80
-25 -79 0 -80 0 -80 25 0 25 1 25 80 25 79 0 80 0 80 -25z"/>
<path d="M5346 1258 c-24 -34 -21 -133 4 -158 18 -18 33 -20 130 -20 l110 0 0
-25 c0 -25 -1 -25 -90 -25 -73 0 -90 3 -90 15 0 11 -11 15 -40 15 -37 0 -40
-2 -40 -28 0 -15 7 -38 16 -50 14 -21 22 -22 149 -22 163 0 165 1 165 100 0
96 -5 100 -141 100 l-109 0 0 25 c0 25 1 25 90 25 73 0 90 -3 90 -15 0 -10 11
-15 35 -15 33 0 35 2 35 34 0 60 -15 66 -165 66 -127 0 -135 -1 -149 -22z"/>
<path d="M3030 1187 c-19 -12 -42 -38 -53 -57 l-19 -35 21 25 c11 14 21 27 21
30 0 13 62 41 93 42 46 2 62 -9 42 -28 -34 -34 -5 -99 59 -134 45 -25 40 -18
-16 24 -48 35 -58 69 -28 100 l21 24 -22 16 c-33 22 -80 20 -119 -7z"/>
<path d="M3036 1038 c-3 -7 -7 -28 -10 -47 -5 -27 -3 -32 10 -27 9 3 19 6 22
6 4 0 1 4 -7 9 -8 5 -11 16 -7 26 5 14 9 15 21 5 18 -15 19 -1 1 23 -16 20
-25 22 -30 5z"/>
<path d="M3123 969 c9 -6 15 -14 12 -20 -3 -5 1 -6 11 -2 16 6 15 7 -2 20 -10
7 -23 13 -28 13 -6 0 -3 -5 7 -11z"/>
</g>
</svg>
