<?xml version="1.0" standalone="no"?>
<!DOCTYPE svg PUBLIC "-//W3C//DTD SVG 20010904//EN"
 "http://www.w3.org/TR/2001/REC-SVG-20010904/DTD/svg10.dtd">
<svg version="1.0" xmlns="http://www.w3.org/2000/svg"
 width="300.000000pt" height="31.000000pt" viewBox="0 0 300.000000 31.000000"
 preserveAspectRatio="xMidYMid meet">
<metadata>
Created by potrace 1.10, written by Peter Selinger 2001-2011
</metadata>
<g transform="translate(0.000000,31.000000) scale(0.100000,-0.100000)"
fill="#000000" stroke="none">
<path d="M1554 241 c-32 -19 -64 -85 -49 -99 4 -4 10 -1 13 7 2 7 16 27 31 43
29 32 79 41 106 18 17 -14 20 -40 5 -40 -25 0 7 -49 33 -50 11 0 9 68 -3 91
-12 22 -60 49 -87 49 -10 0 -32 -9 -49 -19z"/>
<path d="M20 245 c0 -3 18 -41 40 -85 54 -108 71 -109 123 -5 42 86 44 95 19
95 -13 0 -28 -20 -49 -65 l-31 -66 -30 66 c-23 49 -36 65 -51 65 -12 0 -21 -2
-21 -5z"/>
<path d="M250 163 l0 -83 85 0 c80 0 85 1 85 21 0 21 -3 22 -65 16 -53 -5 -65
-4 -65 8 0 12 15 15 65 15 58 0 65 2 65 20 0 18 -7 20 -65 20 -54 0 -65 3 -65
16 0 15 9 16 65 11 62 -6 65 -5 65 16 0 21 -4 22 -85 22 l-85 0 0 -82z"/>
<path d="M450 165 l0 -85 75 0 c69 0 75 2 75 21 0 19 -5 21 -55 17 l-55 -3 0
68 c0 60 -2 67 -20 67 -18 0 -20 -7 -20 -85z"/>
<path d="M1030 248 c-1 -2 -2 -40 -3 -86 -2 -80 -1 -82 21 -82 23 0 23 2 19
83 -3 67 -7 83 -20 85 -9 2 -17 2 -17 0z"/>
<path d="M1094 241 c-2 -2 -4 -13 -4 -24 0 -17 5 -19 35 -14 l35 6 0 -65 c0
-58 2 -64 21 -64 19 0 20 5 18 62 l-3 63 32 -3 c28 -3 32 0 32 20 0 22 -3 23
-81 23 -44 0 -82 -2 -85 -4z"/>
<path d="M1290 244 c0 -3 16 -26 36 -52 29 -38 35 -53 30 -80 -4 -29 -2 -32
21 -32 23 0 25 3 19 31 -5 26 0 41 29 80 41 57 41 59 15 59 -11 0 -29 -14 -42
-30 l-22 -30 -24 30 c-20 25 -62 42 -62 24z"/>
<path d="M1750 164 c0 -79 1 -84 21 -84 20 0 21 4 17 50 -3 28 -2 50 1 50 3 0
19 -18 34 -40 26 -37 47 -51 47 -32 0 4 14 23 31 42 l30 35 -4 -52 c-4 -49 -2
-53 17 -53 20 0 21 5 19 82 -2 74 -4 83 -20 80 -10 -2 -34 -21 -54 -44 l-36
-41 -29 41 c-16 22 -39 42 -51 45 -22 4 -23 2 -23 -79z"/>
<path d="M2190 221 c0 -20 4 -23 30 -19 l30 5 0 -64 c0 -56 2 -63 20 -63 18 0
20 7 20 64 l0 65 36 -6 c33 -5 35 -4 32 16 -3 21 -9 23 -86 24 -80 2 -82 1
-82 -22z"/>
<path d="M2580 163 c0 -76 2 -83 20 -83 16 0 20 7 20 30 0 25 4 30 24 30 17 0
27 -9 36 -30 9 -22 19 -30 37 -30 25 0 25 0 8 26 -16 25 -16 28 -1 36 11 6 16
23 16 53 l0 43 -80 4 -80 3 0 -82z m128 30 c2 -9 -10 -13 -42 -13 -35 0 -46 4
-46 16 0 12 9 14 42 12 23 -2 43 -9 46 -15z"/>
<path d="M634 226 c-3 -7 -4 -42 -2 -77 l3 -64 74 -3 c86 -3 91 0 91 75 0 81
-2 83 -86 83 -54 0 -76 -4 -80 -14z m71 -46 c-16 -16 -32 -30 -35 -30 -4 0 -5
13 -2 30 4 26 9 30 35 30 l31 0 -29 -30z m55 -35 c0 -32 -2 -35 -30 -35 -16 0
-30 3 -30 7 0 7 51 63 57 63 2 0 3 -16 3 -35z"/>
<path d="M830 160 l0 -81 83 3 c77 3 82 4 85 26 4 23 2 24 -123 8 -5 0 -10 19
-10 44 0 25 5 44 10 44 125 -16 127 -15 123 8 -3 22 -8 23 -85 26 l-83 3 0
-81z"/>
<path d="M1996 225 c-9 -24 -7 -118 3 -133 5 -9 29 -12 82 -10 l74 3 0 75 0
75 -76 3 c-63 2 -78 0 -83 -13z m94 -22 c0 -10 -42 -53 -52 -53 -4 0 -8 14 -8
30 0 27 3 30 30 30 17 0 30 -3 30 -7z m30 -58 c0 -32 -2 -35 -30 -35 -16 0
-30 2 -30 4 0 4 51 62 58 65 1 0 2 -15 2 -34z"/>
<path d="M2388 169 c-1 -39 0 -75 3 -81 3 -5 39 -8 80 -6 l74 3 0 75 0 75 -77
3 -76 3 -4 -72z m92 33 c0 -5 -13 -21 -30 -37 l-30 -29 0 30 c0 17 3 34 7 37
9 10 53 9 53 -1z m37 -54 c-3 -29 -7 -33 -38 -36 l-34 -3 34 35 c19 20 37 36
39 36 1 0 1 -15 -1 -32z"/>
<path d="M2777 233 c-4 -3 -7 -23 -7 -44 0 -44 10 -49 87 -49 39 0 54 -4 51
-12 -6 -16 -98 -24 -98 -9 0 6 -9 11 -21 11 -15 0 -20 -5 -17 -22 3 -21 9 -23
86 -26 l83 -3 -3 48 -3 48 -62 3 c-47 2 -63 7 -63 17 0 18 85 22 95 5 8 -13
45 -13 45 -1 0 35 -13 41 -89 41 -43 0 -81 -3 -84 -7z"/>
<path d="M1568 190 c-26 -20 -55 -76 -45 -86 3 -4 12 9 20 29 25 58 94 94 81
41 -5 -18 0 -32 17 -50 12 -13 29 -24 36 -24 7 0 -1 13 -19 29 -29 25 -31 31
-18 46 12 14 12 18 -1 26 -22 14 -44 11 -71 -11z"/>
<path d="M1570 106 c-11 -33 -2 -46 35 -46 40 0 43 14 9 46 l-33 30 -11 -30z"/>
</g>
</svg>
